<svg version="1.1" xmlns="http://www.w3.org/2000/svg" width="24" height="24" viewBox="0 0 24 24">
    <title>
        Dump Stuck
    </title>
    <path d="M58 0H42.535a2 2 0 00-1.664.891L39.465 3H4a2 2 0 00-2 2v3a.977.977 0 00.1.418c.021.035.044.068.069.1a.955.955 0 00.19.229c.015.013.022.034.038.046l14.475 11-2.716 3.261A15.244 15.244 0 0013 23c-2.26 0-4.479.593-6.437 1.72-.02.01-.043.01-.063.022s-.039.039-.063.055a13.073 13.073 0 00-4.64 4.64c-.016.024-.041.038-.055.063s-.011.043-.021.063a12.9 12.9 0 000 12.874c.01.02.009.043.021.063.024.035.05.069.08.1a13.078 13.078 0 004.615 4.6c.024.016.038.041.063.055a.8.8 0 00.087.036 12.907 12.907 0 0012.826 0 .8.8 0 00.087-.036c.025-.014.039-.039.063-.055a13.078 13.078 0 004.615-4.6.809.809 0 00.08-.1c.012-.02.011-.043.021-.063A12.9 12.9 0 0025.83 38h6.34a12.9 12.9 0 001.551 4.437c.01.02.009.043.021.063.024.035.05.069.08.1a13.078 13.078 0 004.615 4.6c.024.016.038.041.063.055a.8.8 0 00.087.036 12.907 12.907 0 0012.826 0 .8.8 0 00.087-.036c.025-.014.039-.039.063-.055a13.078 13.078 0 004.615-4.6.809.809 0 00.08-.1c.012-.02.011-.043.021-.063A12.925 12.925 0 0057 31.008v-4.675l2.8-3.733a1 1 0 00.2-.6v-3c0-.127-.024-.254-.071-.372l-3.5-8.742A2.987 2.987 0 0053.646 8H43.5l1.091-2H59a1 1 0 001-1V2a2 2 0 00-2-2zM20.55 20.082L26.594 9h4.722l-7.427 13.62zm-1.61-1.224l-4.048-3.077L18.594 9h5.722zm-5.659-4.3L5.969 9h10.346zm6.056 30.419l-.471-.816a1 1 0 00-1.732 1l.471.816a10.9 10.9 0 01-3.605.972V46a1 1 0 00-2 0v.949a10.9 10.9 0 01-3.6-.973l.471-.816a1 1 0 00-1.732-1l-.471.816a11.1 11.1 0 01-2.639-2.639l.816-.471a1 1 0 10-1-1.732l-.816.471A10.9 10.9 0 012.051 37H3a1 1 0 000-2h-.949a10.9 10.9 0 01.973-3.6l.816.471a1 1 0 101-1.732l-.816-.471a11.1 11.1 0 012.639-2.639l.471.816a1 1 0 001.732-1l-.466-.821a10.9 10.9 0 013.6-.973V26a1 1 0 002 0v-.949a10.9 10.9 0 013.605.973l-.471.816a1 1 0 101.732 1l.471-.816a11.1 11.1 0 012.639 2.639l-.816.471a1 1 0 101 1.732l.816-.471a10.9 10.9 0 01.973 3.6H23a1 1 0 000 2h.949a10.9 10.9 0 01-.973 3.6l-.816-.471a1 1 0 00-1 1.732l.816.471a11.1 11.1 0 01-2.639 2.649zM26 36a12.9 12.9 0 00-1.721-6.437c-.01-.02-.009-.043-.021-.063s-.039-.039-.055-.062a13.067 13.067 0 00-4.64-4.641c-.024-.016-.038-.041-.063-.055s-.043-.012-.063-.022a12.939 12.939 0 00-3.023-1.25l2.05-2.462 8.394 6.38c.523.396 1.16.61 1.816.612h2.139a3 3 0 002.633-1.563L36.412 21h14.12L55 26.362v1.343a13.087 13.087 0 00-3.437-2.905c-.024-.016-.038-.041-.063-.055s-.043-.011-.063-.021a12.9 12.9 0 00-12.874 0c-.02.011-.043.01-.063.022s-.039.039-.063.055a13.073 13.073 0 00-4.64 4.64c-.016.024-.041.038-.055.063s-.011.043-.021.063A12.9 12.9 0 0032 36zm25.337 8.976l-.471-.816a1 1 0 10-1.732 1l.471.816a10.9 10.9 0 01-3.6.973V46a1 1 0 00-2 0v.949a10.9 10.9 0 01-3.6-.973l.471-.816a1 1 0 10-1.732-1l-.471.816a11.1 11.1 0 01-2.639-2.639l.816-.471a1 1 0 00-1-1.732l-.816.471a10.9 10.9 0 01-.973-3.6H35a1 1 0 000-2h-.949a10.9 10.9 0 01.973-3.6l.816.471a1 1 0 101-1.732l-.816-.471a11.1 11.1 0 012.639-2.639l.471.816a1 1 0 001.732-1l-.471-.816a10.9 10.9 0 013.6-.973V26a1 1 0 002 0v-.949a10.9 10.9 0 013.6.973l-.471.816a1 1 0 101.732 1l.471-.816a11.1 11.1 0 012.639 2.639l-.816.471a1 1 0 101 1.732l.816-.471a10.9 10.9 0 01.973 3.6H55a1 1 0 000 2h.949a10.9 10.9 0 01-.973 3.6l-.816-.471a1 1 0 10-1 1.732l.816.471a11.1 11.1 0 01-2.639 2.649zm4.622-20.587L53.135 21H58v.667zm-1.385-13.76L57.923 19H46v-9h7.646a.994.994 0 01.928.629zM44 10v9h-6.5l4.909-9zm14-6H44a1 1 0 00-.878.521L31.69 25.479a1 1 0 01-.877.521h-2.139c-.218 0-.431-.07-.606-.2L25.5 23.844 33.594 9H36a1 1 0 000-2H4V5h35.465a2 2 0 001.664-.891L42.535 2H58z"/>
    <path d="M13 29a7 7 0 107 7 7.008 7.008 0 00-7-7zm0 12a5 5 0 110-10 5 5 0 010 10zM45 29a7 7 0 107 7 7.008 7.008 0 00-7-7zm0 12a5 5 0 110-10 5 5 0 010 10z"/>
</svg>
